<?xml version="1.0" standalone="no"?>
<!DOCTYPE svg PUBLIC "-//W3C//DTD SVG 20010904//EN"
 "http://www.w3.org/TR/2001/REC-SVG-20010904/DTD/svg10.dtd">
<svg version="1.0" xmlns="http://www.w3.org/2000/svg"
 width="700.000000pt" height="700.000000pt" viewBox="0 0 700.000000 700.000000"
 preserveAspectRatio="xMidYMid meet">
<metadata>
Created by potrace 1.14, written by Peter Selinger 2001-2017
</metadata>
<g transform="translate(0.000000,700.000000) scale(0.100000,-0.100000)"
fill="#000000" stroke="none">
<path d="M3350 6989 c0 -13 -51 -55 -62 -51 -5 1 -7 -1 -7 -5 3 -20 -2 -34
-11 -28 -5 3 -10 2 -10 -3 0 -5 -9 -12 -21 -15 -12 -3 -18 -10 -15 -15 7 -11
-40 -53 -50 -44 -4 4 -4 -1 -1 -10 4 -12 1 -18 -9 -18 -8 0 -12 -4 -9 -10 5
-9 0 -11 -21 -9 -4 0 -12 -10 -19 -23 -6 -13 -17 -22 -23 -21 -7 2 -9 -4 -5
-14 4 -11 3 -14 -5 -9 -7 4 -12 2 -12 -4 0 -6 -4 -8 -10 -5 -6 3 -7 -1 -4 -10
4 -10 2 -15 -7 -13 -8 2 -13 -3 -11 -9 1 -7 -2 -13 -6 -13 -5 0 -19 -9 -32
-20 -13 -11 -19 -20 -14 -20 5 0 -3 -8 -19 -18 -15 -10 -25 -21 -21 -24 3 -4
-4 -9 -15 -13 -12 -3 -19 -11 -16 -16 4 -5 2 -9 -3 -9 -11 0 -62 -46 -57 -52
2 -2 -9 -12 -24 -22 -15 -11 -36 -32 -47 -48 -10 -15 -24 -28 -30 -28 -6 0
-17 -11 -24 -25 -7 -13 -16 -23 -20 -22 -4 1 -53 -44 -109 -100 -56 -57 -106
-103 -111 -103 -6 0 -9 -3 -8 -7 3 -10 -365 -378 -374 -375 -5 1 -8 -3 -8 -8
0 -18 -153 -160 -172 -160 -9 0 -22 9 -28 20 -6 11 -14 19 -18 18 -11 -2 -72
36 -72 45 0 5 -5 5 -10 2 -6 -3 -10 -2 -10 3 0 5 -13 15 -30 22 -16 7 -30 16
-30 21 0 5 -5 9 -12 9 -6 0 -26 11 -45 26 -18 14 -33 22 -33 19 0 -3 -10 3
-22 15 -12 11 -32 20 -45 20 -13 0 -23 4 -23 8 0 4 -10 8 -22 9 -13 0 -40 4
-60 7 -23 5 -38 3 -38 -3 0 -5 -9 -9 -20 -8 -11 1 -20 4 -20 8 0 6 -22 17 -50
24 -20 6 -48 22 -64 37 -11 10 -26 18 -33 18 -7 0 -13 5 -13 11 0 5 -4 7 -10
4 -5 -3 -10 -3 -10 2 0 4 -27 21 -60 37 -33 16 -60 33 -60 38 0 4 -7 8 -15 8
-8 0 -23 8 -33 18 -10 9 -25 18 -33 20 -8 2 -16 8 -17 13 -2 5 -8 7 -13 3 -5
-3 -9 -1 -9 4 0 5 -17 17 -37 28 -21 10 -44 25 -51 32 -7 6 -21 12 -31 12 -10
0 -26 9 -36 20 -10 11 -24 20 -32 20 -7 0 -13 5 -13 11 0 5 -5 7 -11 4 -6 -4
-17 2 -25 14 -9 12 -20 19 -25 16 -5 -4 -19 5 -31 19 -22 24 -63 51 -118 78
-14 7 -28 17 -32 23 -4 5 -8 6 -8 2 0 -10 -60 24 -60 34 0 4 -11 10 -25 13
-14 4 -25 11 -25 17 0 6 -4 7 -10 4 -5 -3 -10 -2 -10 4 0 5 -8 10 -17 10 -10
1 -36 4 -59 7 -35 5 -41 3 -51 -18 -12 -28 1 -65 28 -73 10 -3 16 -12 13 -19
-3 -7 6 -21 20 -30 15 -9 26 -22 26 -29 0 -8 10 -22 23 -33 30 -27 77 -86 77
-97 0 -4 5 -5 10 -2 6 3 10 -1 10 -9 0 -8 13 -29 30 -46 16 -17 30 -33 30 -36
0 -7 64 -88 73 -92 4 -2 5 -8 1 -13 -3 -5 2 -9 11 -9 9 0 13 -4 10 -10 -3 -5
-1 -10 6 -10 7 0 9 -3 6 -6 -4 -4 7 -23 24 -43 45 -54 49 -60 49 -66 0 -3 12
-19 28 -36 15 -17 26 -35 24 -40 -1 -5 2 -9 8 -9 5 0 10 -10 10 -23 0 -12 11
-34 25 -49 14 -15 25 -32 25 -38 0 -5 5 -10 10 -10 6 0 10 -7 10 -15 0 -9 7
-18 15 -21 8 -4 12 -10 9 -15 -3 -5 4 -19 15 -31 12 -12 21 -30 21 -40 0 -10
4 -18 8 -18 5 0 17 -18 27 -40 10 -22 22 -40 27 -40 4 0 7 -3 6 -7 -2 -10 13
-46 22 -53 3 -3 17 -27 30 -55 14 -27 29 -53 33 -56 5 -3 8 -8 7 -10 -1 -2 4
-17 10 -34 7 -16 13 -37 15 -45 2 -8 4 -16 5 -17 2 -2 3 -6 4 -10 1 -5 7 -18
14 -30 7 -13 10 -23 6 -23 -3 0 -1 -6 5 -13 6 -8 8 -17 4 -20 -3 -4 -1 -7 5
-7 6 0 9 -9 7 -19 -2 -11 3 -22 12 -25 9 -4 13 -9 10 -13 -3 -3 0 -21 8 -40 8
-20 15 -41 15 -48 0 -13 -650 -669 -650 -656 -1 3 -7 -5 -15 -19 -8 -14 -14
-22 -15 -19 0 10 -150 -143 -150 -154 0 -6 -3 -8 -6 -5 -6 7 -54 -39 -54 -52
0 -6 -4 -10 -10 -10 -9 0 -202 -188 -208 -203 -1 -4 -12 -28 -23 -54 -11 -26
-24 -63 -28 -83 -7 -36 6 -120 20 -120 4 0 5 -8 2 -19 -2 -10 1 -24 9 -32 7
-8 14 -21 16 -29 2 -7 11 -20 20 -28 11 -9 12 -11 2 -6 -8 5 -3 -8 13 -28 15
-20 27 -41 27 -47 0 -6 7 -11 16 -11 8 0 13 -4 10 -9 -3 -5 1 -11 9 -15 8 -3
15 -13 15 -21 0 -9 4 -14 9 -10 5 3 18 -6 29 -20 11 -14 27 -25 37 -25 9 0 14
-4 10 -10 -3 -5 17 -31 45 -58 27 -26 50 -54 50 -60 0 -7 6 -11 13 -9 6 1 11
-4 10 -10 -2 -7 1 -12 5 -10 13 3 82 -69 74 -77 -4 -4 -2 -6 4 -4 5 2 22 -10
37 -26 15 -16 27 -26 27 -23 0 3 21 -17 47 -45 120 -128 552 -555 557 -550 3
3 6 1 6 -5 0 -6 22 -34 49 -62 27 -28 47 -51 45 -51 -2 0 33 -36 77 -80 45
-44 82 -80 84 -80 9 0 205 -199 205 -209 0 -6 5 -11 11 -11 14 0 129 -114 129
-128 0 -7 6 -12 13 -12 6 0 30 -21 52 -46 61 -72 165 -174 176 -174 6 0 7 -4
4 -10 -3 -5 -1 -10 4 -10 6 0 28 -18 50 -40 21 -22 44 -40 51 -40 8 0 11 -2 8
-5 -3 -3 23 -35 58 -71 35 -36 64 -69 64 -74 0 -6 4 -9 8 -7 8 2 172 -158 172
-168 0 -2 34 -37 76 -77 131 -126 328 -323 347 -346 9 -12 17 -28 17 -35 0 -7
12 -21 27 -32 15 -11 42 -35 61 -52 18 -18 38 -33 43 -33 5 0 9 -6 9 -14 0 -8
9 -18 20 -21 11 -4 18 -11 15 -16 -4 -5 -2 -9 4 -9 6 0 36 -25 68 -55 32 -30
61 -55 65 -55 5 0 8 -7 8 -15 0 -8 4 -15 9 -15 5 0 25 -15 43 -32 84 -81 137
-116 188 -125 41 -7 178 -9 174 -2 -2 4 12 10 31 13 19 4 35 11 35 16 0 5 11
12 25 16 14 3 25 12 25 20 0 8 3 13 8 12 4 -2 30 19 57 45 28 27 121 118 208
202 86 84 157 160 157 169 0 9 7 16 17 16 9 0 14 2 11 5 -3 3 190 201 428 440
239 239 434 440 434 446 0 7 3 10 6 6 3 -3 361 349 795 783 434 434 791 784
794 779 7 -11 22 3 48 44 10 16 21 26 24 24 6 -7 93 81 93 94 0 5 7 9 16 9 8
0 13 4 10 8 -3 5 5 18 17 29 27 25 61 66 60 73 -5 29 70 104 98 98 11 -2 14
22 14 122 l0 125 -24 0 c-13 0 -26 6 -28 13 -3 6 -11 12 -18 12 -7 0 -19 13
-26 29 -7 16 -17 27 -21 25 -4 -3 -8 2 -8 11 0 16 -96 115 -112 115 -4 0 -8 6
-8 14 0 8 -8 17 -17 21 -10 3 -29 21 -43 39 -14 19 -28 32 -32 30 -4 -2 -9 5
-13 16 -3 11 -13 20 -21 20 -8 0 -13 3 -11 8 5 9 -29 42 -37 35 -3 -3 -13 8
-23 26 -10 17 -22 31 -26 31 -12 0 -37 27 -37 39 0 6 -4 11 -9 11 -13 0 -71
56 -71 69 0 6 -4 11 -8 11 -12 0 -130 119 -124 125 3 3 0 5 -7 5 -7 0 -10 4
-7 8 3 5 -6 16 -20 26 -30 24 -85 76 -79 76 3 0 -12 16 -32 35 -20 19 -41 35
-47 35 -5 0 -7 2 -4 6 3 3 -33 42 -80 87 -47 45 -95 93 -106 106 -48 53 -66
72 -66 67 0 -4 -9 3 -20 14 -19 19 -24 70 -7 70 4 0 6 4 3 8 -3 5 1 19 8 33 7
13 13 29 14 34 1 6 10 33 19 60 10 28 18 52 18 55 4 24 18 50 26 50 6 0 8 4 5
9 -3 5 7 41 24 80 16 39 26 71 22 71 -4 0 -1 4 7 9 8 5 15 18 16 28 1 10 4 25
6 33 4 14 8 20 36 54 6 7 9 17 6 20 -4 3 -1 6 5 6 7 0 12 5 12 10 0 12 41 73
53 78 4 2 5 8 1 13 -3 5 -1 9 4 9 5 0 15 14 22 30 7 17 17 30 22 30 5 0 12 8
15 18 8 22 46 76 56 80 4 2 7 10 7 17 0 17 37 80 64 110 45 49 136 179 136
194 0 7 4 10 8 7 5 -3 15 6 22 19 7 13 17 22 22 19 5 -3 7 -1 6 4 -4 11 68 92
75 85 3 -2 8 5 12 16 3 12 11 21 17 21 6 0 8 3 5 7 -4 3 2 13 13 20 11 8 18
19 15 24 -4 5 2 9 11 9 10 0 15 3 11 6 -6 6 1 17 35 54 25 28 58 96 50 104 -3
4 0 11 8 16 12 7 12 13 1 33 -14 26 -64 35 -88 16 -7 -6 -17 -8 -23 -4 -5 3
-10 2 -10 -4 0 -6 -11 -13 -25 -17 -14 -3 -25 -10 -25 -14 0 -4 -15 -13 -32
-21 -18 -7 -40 -20 -48 -29 -8 -8 -27 -21 -42 -29 -16 -8 -28 -18 -28 -23 0
-4 -6 -8 -13 -8 -7 0 -19 -6 -25 -12 -7 -7 -16 -14 -20 -14 -27 -5 -52 -18
-52 -26 0 -5 -4 -7 -8 -4 -5 3 -18 -2 -28 -12 -23 -20 -44 -26 -44 -12 0 5
-23 -4 -50 -20 -28 -17 -55 -30 -60 -30 -6 0 -10 -5 -10 -11 0 -5 -4 -7 -10
-4 -5 3 -10 1 -10 -5 0 -6 -4 -9 -9 -6 -5 4 -12 -7 -16 -23 -4 -20 -14 -31
-31 -35 -13 -4 -24 -11 -24 -17 0 -6 -4 -8 -9 -5 -5 3 -19 -2 -32 -12 -25 -19
-70 -40 -80 -38 -3 0 -13 -7 -23 -16 -10 -10 -24 -18 -32 -18 -8 0 -14 -5 -14
-12 0 -6 -3 -8 -7 -5 -3 4 -15 0 -25 -10 -10 -9 -18 -13 -18 -9 0 4 -7 0 -16
-8 -8 -9 -20 -14 -25 -11 -5 4 -9 2 -9 -3 0 -6 -11 -13 -25 -16 -14 -4 -25
-11 -25 -16 0 -6 -9 -10 -20 -10 -10 0 -23 -8 -29 -17 -5 -10 -12 -16 -16 -14
-9 5 -65 -20 -65 -30 0 -5 -5 -8 -11 -7 -6 2 -13 -7 -15 -18 -8 -47 -24 -74
-44 -74 -11 0 -20 -4 -20 -8 0 -4 -26 -23 -57 -42 -32 -19 -64 -40 -71 -47 -6
-6 -21 -15 -32 -18 -11 -3 -20 -11 -20 -16 0 -5 -5 -9 -11 -9 -6 0 -33 -16
-60 -36 -27 -20 -49 -33 -49 -29 0 4 -7 2 -15 -5 -13 -11 -23 -5 -65 37 -28
28 -50 48 -50 44 0 -3 -9 8 -20 24 -11 17 -20 27 -20 24 0 -5 -111 107 -167
168 -6 7 -16 13 -22 13 -6 0 -11 4 -11 8 0 11 -151 162 -162 162 -4 0 -8 6 -8
13 0 7 -11 21 -25 31 -64 48 -135 115 -135 127 0 6 -4 8 -9 4 -5 -3 -12 4 -16
15 -3 11 -13 20 -21 20 -8 0 -19 11 -26 25 -6 13 -15 22 -19 19 -5 -3 -9 1 -9
9 0 8 -12 23 -27 33 -16 9 -34 26 -41 36 -7 10 -19 18 -27 18 -9 0 -12 6 -8
17 4 10 2 14 -5 9 -6 -3 -13 3 -17 14 -3 11 -11 20 -16 20 -15 0 -59 42 -53
51 3 5 -2 6 -10 3 -11 -4 -16 0 -16 10 0 9 -4 16 -10 16 -5 0 -10 8 -10 17 0
9 -3 14 -6 10 -8 -8 -28 12 -37 37 -4 10 -13 16 -20 14 -6 -3 -20 4 -29 14
-10 10 -15 18 -12 18 3 0 -1 7 -10 15 -8 8 -19 15 -25 15 -5 0 -13 9 -16 20
-3 11 -14 20 -22 20 -9 0 -13 3 -10 6 3 4 -21 34 -53 67 -33 33 -60 65 -60 70
0 6 -2 8 -5 5 -3 -3 -27 16 -54 41 -116 111 -92 101 -245 101 -93 0 -136 -4
-136 -11z"/>
</g>
</svg>
